<svg width="26" height="26" viewBox="0 0 26 26" fill="none" xmlns="http://www.w3.org/2000/svg">
<circle cx="13" cy="13" r="13" fill="#EDF2F5"/>
<path d="M19.7532 7.0004C19.5136 7.00754 19.2862 7.10769 19.1191 7.27963L9.6252 16.7735L6.58787 13.7362C6.50288 13.6477 6.40108 13.577 6.28843 13.5283C6.17579 13.4796 6.05456 13.4539 5.93184 13.4527C5.80913 13.4514 5.6874 13.4747 5.57379 13.521C5.46017 13.5674 5.35696 13.636 5.27018 13.7228C5.18341 13.8096 5.11482 13.9128 5.06843 14.0264C5.02205 14.14 4.9988 14.2617 5.00005 14.3845C5.0013 14.5072 5.02702 14.6284 5.0757 14.741C5.12439 14.8537 5.19507 14.9555 5.28359 15.0405L8.97306 18.73C9.14604 18.9029 9.38061 19 9.6252 19C9.86978 19 10.1044 18.9029 10.2773 18.73L20.4234 8.58392C20.5567 8.45436 20.6477 8.28756 20.6846 8.10537C20.7214 7.92319 20.7024 7.73412 20.6299 7.56294C20.5575 7.39176 20.435 7.24646 20.2786 7.14608C20.1221 7.0457 19.939 6.99492 19.7532 7.0004Z" fill="#006964" stroke="#006964"/>
</svg>
